<?xml version="1.0" standalone="no"?>
<!DOCTYPE svg PUBLIC "-//W3C//DTD SVG 20010904//EN"
 "http://www.w3.org/TR/2001/REC-SVG-20010904/DTD/svg10.dtd">
<svg version="1.0" xmlns="http://www.w3.org/2000/svg"
 width="157.000000pt" height="198.000000pt" viewBox="0 0 157.000000 198.000000"
 preserveAspectRatio="xMidYMid meet">

<g transform="translate(0.000000,198.000000) scale(0.100000,-0.100000)"
fill="#000000" stroke="none">
<path d="M777 1861 c-3 -11 -13 -24 -24 -28 -17 -7 -16 -10 8 -33 l26 -25 27
27 c19 20 23 28 12 28 -8 0 -22 12 -29 26 -13 26 -14 26 -20 5z"/>
<path d="M565 1660 c-11 -17 5 -32 21 -19 7 6 11 15 8 20 -7 12 -21 11 -29 -1z"/>
<path d="M1220 1617 l-25 -32 27 -28 c25 -26 27 -27 33 -8 3 11 15 23 27 27
20 6 20 7 -5 28 -14 11 -27 27 -29 33 -2 8 -14 -1 -28 -20z"/>
<path d="M698 1563 c-13 -16 -13 -20 3 -35 16 -15 18 -15 33 1 15 16 15 19 -2
34 -18 16 -20 16 -34 0z"/>
<path d="M377 1548 c-4 -16 -19 -30 -38 -38 l-31 -13 30 -13 c17 -7 33 -22 37
-35 l7 -22 13 23 c7 12 23 28 35 35 l23 13 -21 11 c-12 6 -28 23 -35 38 l-14
26 -6 -25z"/>
<path d="M941 1453 c-1 -12 -5 -25 -11 -28 -5 -3 -10 -25 -10 -49 0 -48 -36
-173 -56 -197 -8 -8 -14 -19 -14 -23 0 -20 -34 -76 -46 -76 -18 0 -17 10 1 34
18 24 9 66 -17 85 -11 7 -17 19 -14 26 15 39 -72 48 -125 12 -66 -45 -59 -125
14 -160 37 -17 49 -37 23 -37 -14 0 -106 -100 -106 -114 0 -17 -122 -174 -143
-184 -12 -6 -16 -11 -9 -11 10 -1 9 -8 -3 -30 -12 -24 -12 -32 -2 -38 25 -15
38 -11 54 20 15 30 153 193 153 182 0 -3 9 -1 20 5 17 9 20 8 19 -12 -1 -29
-17 -78 -18 -58 -1 9 -7 6 -18 -10 -9 -14 -44 -58 -76 -98 -33 -40 -57 -75
-53 -79 8 -9 142 -7 157 2 6 4 17 21 25 39 l13 31 1 -38 c0 -48 -39 -165 -86
-260 -42 -82 -57 -127 -43 -127 13 0 11 -13 -5 -35 -11 -15 -28 -18 -95 -20
-77 -2 -84 -4 -113 -32 l-31 -31 57 -13 c31 -7 54 -14 52 -17 -3 -2 -64 2
-136 9 l-131 12 -32 -31 -32 -32 670 0 c735 0 706 -3 561 56 -72 30 -125 76
-151 130 -14 30 -20 34 -55 34 -21 0 -42 5 -45 10 -3 6 -14 10 -24 10 -9 0
-26 6 -36 14 -17 12 -17 16 -6 30 10 12 12 36 8 92 -5 70 -9 80 -54 142 -29
39 -59 69 -73 73 -24 7 -24 7 5 8 57 2 60 11 30 92 -15 41 -29 106 -32 147 -5
59 -8 70 -19 61 -23 -19 -16 -1 26 70 41 69 48 95 30 106 -7 5 -8 11 -1 18 5
7 12 41 16 77 3 36 11 89 17 117 9 45 9 56 -4 70 -9 10 -18 25 -21 33 -4 10
-6 8 -6 -7z m-56 -943 c30 -41 35 -55 35 -104 0 -31 5 -56 10 -56 6 0 10 -13
10 -30 0 -26 -4 -30 -28 -30 -43 0 -69 -33 -34 -44 9 -3 -5 -3 -32 0 -39 5
-52 2 -70 -14 -28 -26 -43 -29 -89 -13 -40 14 -45 34 -10 39 17 3 26 18 43 75
12 40 40 111 63 159 46 97 44 97 102 18z"/>
<path d="M1303 1370 c-17 -25 5 -44 29 -26 17 12 17 14 0 29 -16 15 -19 15
-29 -3z"/>
<path d="M674 1369 c-8 -14 11 -33 25 -25 11 7 4 36 -9 36 -5 0 -12 -5 -16
-11z"/>
<path d="M1074 1261 c-19 -15 -19 -17 -2 -34 18 -17 19 -17 37 0 16 17 17 19
1 34 -15 14 -18 14 -36 0z"/>
<path d="M307 1255 c-16 -11 -16 -13 1 -28 16 -15 19 -15 28 1 16 25 -6 44
-29 27z"/>
<path d="M1244 1086 c-8 -9 -8 -17 1 -29 11 -16 13 -16 28 1 13 14 13 19 1 30
-16 15 -16 15 -30 -2z"/>
</g>
</svg>
